<?xml version="1.0" standalone="no"?>
<!DOCTYPE svg PUBLIC "-//W3C//DTD SVG 20010904//EN"
 "http://www.w3.org/TR/2001/REC-SVG-20010904/DTD/svg10.dtd">
<svg version="1.0" xmlns="http://www.w3.org/2000/svg"
 width="554.000000pt" height="554.000000pt" viewBox="0 0 554.000000 554.000000"
 preserveAspectRatio="xMidYMid meet">
<metadata>
Created by potrace 1.14, written by Peter Selinger 2001-2017
</metadata>
<g transform="translate(0.000000,554.000000) scale(0.100000,-0.100000)"
fill="#000000" stroke="none">
<path d="M2991 5172 c-25 -9 -55 -27 -67 -39 -13 -13 -34 -23 -47 -23 -14 0
-36 -13 -53 -32 -16 -18 -38 -38 -48 -43 -14 -8 -20 -26 -23 -77 -5 -63 -4
-68 26 -100 17 -18 47 -54 67 -80 30 -40 43 -48 87 -58 159 -35 208 -25 316
65 42 35 84 78 93 97 9 18 22 45 28 60 20 43 6 114 -30 150 -34 34 -100 81
-100 71 0 -3 -7 0 -15 7 -25 21 -182 22 -234 2z m199 -132 c53 0 30 -91 -42
-164 -37 -36 -42 -38 -89 -34 -37 4 -58 12 -79 33 -36 34 -36 33 -9 89 16 35
29 47 62 59 61 22 79 26 111 21 16 -2 36 -4 46 -4z"/>
<path d="M1422 4733 c-11 -15 -25 -46 -31 -68 -15 -52 -36 -79 -63 -80 -63 -1
-39 -157 34 -232 28 -29 51 -43 68 -43 14 0 31 -5 37 -11 5 -5 29 -10 52 -11
35 0 49 6 75 31 17 17 36 31 42 31 5 0 26 11 45 24 29 20 35 30 32 49 -3 14 0
28 6 31 20 13 13 124 -10 170 -12 22 -24 47 -28 54 -12 26 -103 60 -202 77
-32 6 -39 3 -57 -22z m147 -147 c19 -21 22 -30 16 -70 -6 -39 -11 -47 -34 -52
-14 -3 -34 -8 -43 -11 -20 -5 -71 43 -65 61 2 6 13 12 25 14 20 3 36 33 31 58
-6 33 39 33 70 0z"/>
<path d="M2196 4494 c-29 -20 -36 -31 -36 -58 0 -58 74 -96 130 -66 19 10 60
70 60 87 0 9 -64 44 -101 56 -9 3 -33 -6 -53 -19z"/>
<path d="M3633 4039 c-26 -9 -34 -31 -26 -72 10 -54 21 -67 58 -67 51 0 81 15
94 48 15 37 7 68 -22 83 -26 15 -77 18 -104 8z"/>
<path d="M2005 3881 c-3 -2 -20 -5 -38 -7 -31 -2 -72 -10 -72 -15 0 -1 -11 -3
-25 -5 -63 -7 -106 -17 -117 -26 -7 -5 -25 -11 -40 -12 -51 -4 -113 -18 -119
-27 -2 -4 -11 -6 -19 -2 -8 3 -15 0 -15 -6 0 -10 -57 -42 -80 -46 -3 0 -32
-14 -65 -31 -33 -17 -71 -34 -85 -37 -34 -8 -140 -67 -140 -77 0 -4 -8 -6 -18
-4 -9 3 -28 -5 -42 -18 -13 -13 -28 -22 -32 -21 -5 2 -8 -2 -8 -8 0 -5 -21
-20 -47 -31 -27 -11 -59 -33 -73 -47 -14 -14 -38 -32 -53 -40 -15 -8 -27 -19
-27 -24 0 -11 -42 -46 -56 -47 -19 0 -146 -132 -160 -166 -7 -17 -29 -43 -48
-58 -20 -15 -36 -36 -36 -46 0 -10 -4 -21 -9 -25 -5 -3 -13 -20 -16 -38 -14
-67 -59 -192 -73 -203 -8 -6 -20 -39 -28 -75 -7 -35 -17 -82 -23 -104 -18 -71
-53 -379 -47 -420 3 -22 1 -47 -4 -54 -5 -9 -3 -23 6 -37 12 -18 13 -33 4 -90
-7 -38 -16 -77 -21 -87 -13 -25 1 -119 20 -134 9 -7 12 -13 7 -13 -5 0 -4 -6
2 -12 5 -7 13 -32 17 -56 4 -24 15 -51 24 -60 10 -9 29 -37 44 -62 14 -25 50
-73 81 -107 30 -35 58 -73 61 -85 4 -13 22 -37 41 -55 19 -18 34 -41 34 -52 0
-21 66 -94 95 -104 8 -4 15 -12 15 -18 0 -14 26 -36 56 -48 26 -12 158 -112
163 -125 8 -20 55 -56 73 -56 10 0 21 -7 24 -15 3 -8 14 -17 25 -20 31 -10 23
-50 -21 -100 -22 -25 -40 -52 -40 -58 0 -7 -10 -28 -23 -47 -29 -44 -50 -154
-41 -223 8 -61 29 -107 48 -107 8 0 28 -12 45 -26 33 -27 57 -26 68 2 3 9 -1
49 -10 88 -18 74 -15 129 10 176 7 14 13 29 13 34 0 21 125 152 153 159 35 10
70 48 56 61 -5 6 -9 17 -9 26 0 27 -34 50 -72 50 -25 0 -50 11 -89 40 -30 22
-62 43 -71 46 -10 4 -18 16 -18 29 0 22 -77 115 -96 115 -8 0 -69 50 -124 103
-37 36 -93 105 -110 136 -15 28 -51 72 -144 178 -26 31 -55 72 -63 92 -8 20
-26 49 -39 64 -18 22 -24 40 -24 79 0 30 -6 58 -14 67 -8 10 -16 50 -20 99 -3
46 -8 87 -10 91 -3 4 -1 25 5 47 5 21 11 92 14 157 2 64 8 125 13 135 5 9 12
44 15 76 3 33 10 62 15 65 5 3 13 26 17 51 4 25 13 59 20 75 16 39 29 75 52
152 15 51 21 62 36 57 13 -4 17 0 17 19 0 29 35 77 56 77 8 0 13 4 9 10 -3 5
10 31 30 57 19 26 38 55 41 63 3 9 18 24 35 35 16 11 29 25 29 32 0 6 9 15 20
18 11 3 20 12 20 20 0 7 12 23 28 34 36 27 73 58 122 104 22 20 44 37 49 37 5
0 14 6 20 14 7 8 35 27 63 41 28 15 58 33 65 41 8 8 25 14 39 14 13 0 24 4 24
9 0 8 49 24 65 22 3 -1 27 10 53 23 27 13 65 28 86 31 20 4 44 14 52 22 8 9
17 13 20 10 3 -3 44 8 91 24 46 16 89 27 93 24 5 -3 11 -1 15 5 3 5 21 10 38
10 18 0 40 6 49 14 10 7 36 11 60 10 111 -8 130 -7 138 5 6 10 15 9 41 -5 19
-9 54 -17 79 -16 24 0 57 -6 72 -14 16 -8 32 -13 37 -10 4 3 30 -3 57 -13 27
-9 54 -16 60 -14 11 4 46 -4 143 -30 30 -8 60 -13 66 -11 7 3 18 -2 25 -11 7
-8 22 -15 35 -15 22 0 86 -27 95 -41 3 -4 25 -17 50 -30 25 -12 59 -33 77 -46
17 -12 36 -23 40 -23 5 0 22 -13 38 -30 16 -16 33 -30 38 -30 5 0 23 -11 39
-26 17 -14 44 -28 60 -31 16 -3 32 -12 35 -19 3 -8 13 -14 22 -14 9 0 34 -18
55 -39 22 -22 51 -45 65 -51 14 -7 48 -38 74 -71 26 -32 54 -59 62 -59 7 0 16
-8 20 -19 3 -10 27 -41 53 -68 26 -28 67 -78 91 -111 24 -34 47 -62 52 -62 5
0 14 -12 21 -27 40 -99 82 -188 108 -228 11 -16 22 -36 25 -42 3 -7 7 -19 10
-25 3 -7 15 -29 27 -48 20 -32 21 -47 19 -189 -1 -104 -6 -162 -15 -180 -7
-14 -17 -48 -21 -76 -4 -27 -13 -57 -20 -65 -7 -8 -15 -28 -18 -45 -8 -44 -63
-190 -81 -217 -9 -12 -16 -29 -16 -38 0 -9 -25 -40 -55 -70 -30 -30 -55 -60
-55 -67 0 -7 -27 -30 -59 -53 -33 -22 -63 -44 -66 -50 -3 -5 -15 -10 -25 -10
-10 0 -31 -16 -46 -36 -16 -21 -39 -38 -56 -41 -17 -3 -32 -12 -35 -19 -5 -15
-76 -54 -98 -54 -7 0 -20 -6 -28 -14 -8 -8 -40 -17 -72 -20 -58 -6 -117 -20
-168 -40 -31 -12 -57 -60 -57 -106 0 -38 55 -84 90 -74 93 25 89 25 116 -18
14 -22 28 -46 31 -54 3 -8 16 -17 28 -20 13 -3 31 -14 41 -25 9 -10 21 -19 27
-19 19 0 83 -76 106 -128 14 -29 31 -58 38 -64 7 -6 13 -30 13 -54 0 -24 9
-63 19 -87 11 -23 22 -60 26 -82 4 -22 15 -60 26 -84 10 -24 19 -54 19 -67 0
-13 3 -24 6 -24 17 0 45 24 66 57 18 30 22 49 20 88 -2 28 -10 57 -18 66 -8 8
-14 30 -14 49 0 45 -36 162 -59 192 -11 13 -22 41 -26 61 -4 21 -11 39 -15 42
-4 3 -27 43 -50 91 -24 47 -53 92 -66 101 -14 9 -26 29 -30 49 -8 42 9 64 69
89 96 40 108 47 120 66 7 11 28 28 47 37 19 9 65 46 101 82 36 36 84 81 105
101 22 20 48 54 59 75 11 22 32 51 47 66 16 15 28 35 28 45 0 10 6 27 13 38 7
11 23 47 36 80 13 33 32 69 41 80 9 11 23 43 30 70 7 28 18 64 26 81 7 16 11
40 8 51 -3 12 2 38 12 59 25 53 26 233 1 284 -9 19 -18 60 -21 91 -2 31 -11
72 -21 90 -10 19 -39 77 -65 129 -27 52 -62 108 -79 124 -17 17 -31 35 -31 42
0 12 -23 65 -43 99 -7 11 -31 38 -53 60 -23 22 -64 72 -92 111 -60 85 -130
157 -175 180 -17 9 -42 27 -54 40 -12 13 -29 24 -38 24 -9 0 -40 23 -68 50
-28 28 -56 50 -63 50 -7 0 -36 18 -65 40 -30 22 -57 40 -61 40 -3 0 -10 9 -13
21 -4 12 -26 30 -48 41 -65 30 -89 45 -97 59 -5 7 -17 13 -28 14 -11 0 -26 8
-35 17 -8 8 -48 25 -89 37 -40 13 -81 27 -90 32 -32 16 -103 39 -124 39 -12 0
-55 11 -95 24 -88 29 -131 37 -226 42 -39 2 -75 5 -80 6 -4 1 -30 -1 -56 -6
-28 -4 -53 -3 -60 2 -13 11 -85 21 -92 13z"/>
<path d="M2406 3015 c-5 -13 -10 -14 -27 -5 -30 17 -62 5 -104 -36 -31 -30
-36 -39 -28 -57 17 -38 224 -66 403 -54 150 10 178 10 280 5 47 -3 91 -3 98 0
7 2 12 21 12 43 0 40 -17 58 -56 58 -10 0 -41 5 -69 10 -81 17 -206 32 -234
29 -28 -3 -200 10 -242 18 -18 3 -28 0 -33 -11z"/>
<path d="M1248 2940 c-20 -4 -43 -11 -50 -17 -7 -6 -44 -14 -83 -18 -152 -15
-234 -47 -235 -92 0 -12 -6 -24 -12 -26 -10 -4 -10 -6 0 -6 8 -1 10 -9 6 -25
-5 -20 -1 -25 23 -30 15 -4 51 -1 78 5 28 6 78 10 112 9 34 -1 72 4 84 10 11
7 74 14 138 17 159 6 154 5 169 20 7 7 22 13 32 13 17 0 70 59 70 78 0 5 -9
17 -20 27 -11 10 -20 15 -20 12 0 -3 -15 -1 -32 5 -18 6 -49 12 -68 13 -124
10 -159 11 -192 5z"/>
<path d="M2138 2524 c-4 -3 -47 -13 -95 -21 -48 -7 -102 -20 -119 -28 -17 -8
-56 -17 -85 -19 -30 -3 -64 -8 -77 -12 -14 -4 -29 -1 -40 8 -20 18 -267 25
-277 8 -4 -6 -11 -8 -16 -4 -6 3 -28 -6 -49 -21 -21 -15 -49 -26 -62 -24 -56
5 -111 -27 -201 -118 -75 -76 -80 -85 -92 -177 -6 -50 -3 -64 17 -102 12 -24
26 -44 30 -44 3 0 37 -29 74 -65 37 -36 77 -68 88 -71 12 -4 28 -12 36 -20 10
-8 47 -14 100 -15 47 -1 90 -6 96 -10 6 -5 28 -4 49 2 42 12 45 10 99 -66 17
-25 22 -27 70 -20 28 3 55 10 60 16 16 15 44 11 55 -8 6 -11 24 -18 48 -20 89
-5 94 -13 114 -173 6 -46 17 -89 23 -95 7 -5 18 -37 25 -70 7 -33 15 -71 18
-85 3 -14 7 -40 8 -57 4 -38 54 -143 73 -150 6 -3 12 -9 12 -14 0 -5 13 -24
30 -42 16 -18 49 -54 74 -82 43 -48 47 -50 96 -50 42 0 55 4 70 23 10 12 22
22 27 22 16 0 70 105 94 180 34 111 33 266 -3 335 -41 80 -46 97 -51 152 -3
35 1 60 10 73 19 27 69 49 125 54 44 4 60 9 83 29 6 4 24 17 42 27 20 12 34
30 38 49 4 17 12 34 20 38 7 5 20 28 28 53 8 25 22 61 30 80 37 85 46 131 35
193 -6 34 -16 61 -25 64 -8 3 -19 17 -24 30 -5 13 -22 32 -39 41 -16 9 -34 29
-40 43 -6 14 -25 34 -43 43 -18 9 -45 24 -62 34 -28 15 -105 29 -200 36 -48 4
-93 15 -120 30 -11 6 -42 12 -70 12 -27 1 -61 4 -75 8 -14 4 -28 4 -32 0z
m196 -185 c16 -5 51 -9 77 -9 68 0 147 -19 197 -46 23 -13 52 -24 63 -24 11 0
34 -13 50 -29 39 -40 39 -90 -1 -173 -16 -35 -34 -70 -39 -78 -5 -8 -13 -28
-18 -45 -10 -34 -40 -52 -98 -58 -22 -2 -51 -9 -65 -15 -14 -5 -50 -17 -80
-26 -39 -12 -67 -28 -95 -57 -40 -41 -40 -42 -39 -118 2 -113 14 -182 40 -221
13 -19 24 -39 24 -45 0 -6 11 -27 24 -46 26 -38 26 -57 0 -116 -8 -18 -12 -43
-8 -57 4 -18 -2 -34 -23 -60 -15 -20 -33 -36 -39 -36 -20 0 -104 81 -110 106
-3 13 -10 24 -14 24 -4 0 -10 17 -13 38 -8 56 -30 127 -46 146 -21 25 -19 132
3 175 30 57 15 95 -65 174 -38 37 -75 67 -82 67 -6 0 -57 16 -112 35 -80 28
-115 35 -176 35 -56 0 -80 4 -89 15 -9 10 -32 15 -76 15 -39 0 -87 8 -121 20
-32 11 -71 20 -88 20 -21 0 -44 11 -73 38 -35 30 -43 45 -48 83 -4 27 -2 55 5
67 17 31 160 143 179 140 9 -1 39 6 65 16 33 12 64 17 93 13 24 -2 47 -1 50 4
2 5 39 6 82 2 52 -4 103 0 157 10 44 9 100 16 125 15 25 0 86 4 135 9 95 11
201 7 249 -8z"/>
</g>
</svg>
